# File created by Blade
# Date/Time:  Tue Jan 27 17:27:44 2015
#---------------------------------------------------------
:version 1.10
:name HOM
:units
  mass 1.0
  length 1.000000
  angle deg
:documentation
     Acclaim Skeleton File
:root
   axis xyz
   order TX TY TZ RX RY RZ
   position 0.000000 0.000000 0.000000
   orientation 0 0 0
:bonedata
   begin
      id 1
      name Spine_dum
      direction 0.000000 1.000000 0.000000
      length 7.539951
      axis 0.0 0.0 0.0 xyz
   end
   begin
      id 2
      name LeftUpLeg_dum
      direction 1.000000 0.000000 0.000000
      length 3.345476
      axis 0.0 0.0 0.0 xyz
   end
   begin
      id 3
      name RightUpLeg_dum
      direction -1.000000 0.000000 0.000000
      length 3.345476
      axis 0.0 0.0 0.0 xyz
   end
   begin
      id 4
      name Spine
      direction 0.000000 1.000000 0.000000
      length 0.000000
      axis 0.0 0.0 0.0 xyz
      dof rx ry rz
   end
   begin
      id 5
      name Spine_dum1
      direction 0.000000 1.000000 0.000000
      length 15.093809
      axis 0.0 0.0 0.0 xyz
   end
   begin
      id 6
      name Spine_dum2
      direction 0.000000 1.000000 0.000000
      length 9.738928
      axis 0.0 0.0 0.0 xyz
   end
   begin
      id 7
      name Spine_dum3
      direction 0.000000 1.000000 0.000000
      length 9.738928
      axis 0.0 0.0 0.0 xyz
   end
   begin
      id 8
      name Head
      direction 0.000000 1.000000 0.000000
      length 4.527550
      axis 0.0 0.0 0.0 xyz
      dof rx ry rz
   end
   begin
      id 9
      name LeftShoulder
      direction 1.000000 0.000000 0.000000
      length 7.084015
      axis 0.0 0.0 -90.0 xyz
      dof rx ry rz
   end
   begin
      id 10
      name LeftArm
      direction 1.000000 0.000000 0.000000
      length 10.259319
      axis 0.0 0.0 -90.0 xyz
      dof rx ry rz
   end
   begin
      id 11
      name LeftForeArm
      direction 1.000000 0.000000 0.000000
      length 9.896984
      axis 0.0 0.0 -90.0 xyz
      dof ry rz rx
   end
   begin
      id 12
      name LeftHand
      direction 0.000000 0.000000 0.000000
      length 0.000000
      axis 0.0 0.0 -90.0 xyz
      dof rx ry rz
   end
   begin
      id 13
      name LeftHand_dum1
      direction 0.000000 0.000000 0.000000
      length 0.000000
      axis 0.0 0.0 -90.0 xyz
   end
   begin
      id 14
      name LeftHand_dum2
      direction 1.000000 0.000000 0.000000
      length 3.937000
      axis 0.0 0.0 -90.0 xyz
   end
   begin
      id 15
      name LeftHandThumb1
      direction 0.000000 0.000000 1.000000
      length 3.937000
      axis 0.0 0.0 -90.0 xyz
      dof rx rz ry
   end
   begin
      id 16
      name RightShoulder
      direction -1.000000 0.000000 0.000000
      length 7.084015
      axis 0.0 0.0 90.0 xyz
      dof rx ry rz
   end
   begin
      id 17
      name RightArm
      direction -1.000000 0.000000 0.000000
      length 10.259319
      axis 0.0 0.0 90.0 xyz
      dof rx ry rz
   end
   begin
      id 18
      name RightForeArm
      direction -1.000000 0.000000 0.000000
      length 9.896984
      axis 0.0 0.0 90.0 xyz
      dof ry rz rx
   end
   begin
      id 19
      name RightHand
      direction 0.000000 0.000000 0.000000
      length 0.000000
      axis 0.0 0.0 90.0 xyz
      dof rx ry rz
   end
   begin
      id 20
      name RightHand_dum1
      direction 0.000000 0.000000 0.000000
      length 0.000000
      axis 0.0 0.0 90.0 xyz
   end
   begin
      id 21
      name RightHand_dum2
      direction -1.000000 0.000000 0.000000
      length 3.937000
      axis 0.0 0.0 90.0 xyz
   end
   begin
      id 22
      name RightHandThumb1
      direction 0.000000 0.000000 1.000000
      length 3.937000
      axis 0.0 0.0 90.0 xyz
      dof rx rz ry
   end
   begin
      id 23
      name LeftUpLeg
      direction 0.000000 -1.000000 0.000000
      length 19.114733
      axis 0.0 0.0 0.0 xyz
      dof rx ry rz
   end
   begin
      id 24
      name LeftLeg
      direction 0.000000 -1.000000 0.000000
      length 16.045604
      axis 0.0 0.0 0.0 xyz
      dof rx ry rz
   end
   begin
      id 25
      name LeftFoot
      direction 0.000000 -0.258819 0.965926
      length 5.543155
      axis 15.0 0.0 0.0 xyz
      dof rx ry rz
   end
   begin
      id 26
      name LeftToeBase
      direction 0.000000 0.000000 1.000000
      length 2.952750
      axis 0.0 0.0 0.0 xyz
      dof rx ry rz
   end
   begin
      id 27
      name RightUpLeg
      direction 0.000000 -1.000000 0.000000
      length 19.114733
      axis 0.0 0.0 0.0 xyz
      dof rx ry rz
   end
   begin
      id 28
      name RightLeg
      direction 0.000000 -1.000000 0.000000
      length 16.045604
      axis 0.0 0.0 0.0 xyz
      dof rx ry rz
   end
   begin
      id 29
      name RightFoot
      direction 0.000000 -0.258819 0.965926
      length 5.543155
      axis 15.0 0.0 0.0 xyz
      dof rx ry rz
   end
   begin
      id 30
      name RightToeBase
      direction 0.000000 0.000000 1.000000
      length 2.952750
      axis 0.0 0.0 0.0 xyz
      dof rx ry rz
   end
:hierarchy
   begin
      root Spine_dum LeftUpLeg_dum RightUpLeg_dum
      Spine_dum Spine
      LeftUpLeg_dum LeftUpLeg
      RightUpLeg_dum RightUpLeg
      Spine Spine_dum1 Spine_dum2 Spine_dum3
      Spine_dum1 Head
      Spine_dum2 LeftShoulder
      Spine_dum3 RightShoulder
      LeftShoulder LeftArm
      LeftArm LeftForeArm
      LeftForeArm LeftHand
      LeftHand LeftHand_dum1 LeftHand_dum2
      LeftHand_dum1 LeftHandThumb1
      RightShoulder RightArm
      RightArm RightForeArm
      RightForeArm RightHand
      RightHand RightHand_dum1 RightHand_dum2
      RightHand_dum1 RightHandThumb1
      LeftUpLeg LeftLeg
      LeftLeg LeftFoot
      LeftFoot LeftToeBase
      RightUpLeg RightLeg
      RightLeg RightFoot
      RightFoot RightToeBase
   end

# File created by Blade
# Date/Time:  Tue Jan 27 17:27:32 2015
# Frame Rate: 120.000 fps
#------------------------------------------------------
:FULLY-SPECIFIED
:DEGREES
96
root 2.916476 36.739693 1.065020 5.493303 0.983678 2.222358
Spine 0.523396 8.656926 -6.701215
Head 5.657610 -2.325867 4.334879
LeftShoulder -7.853633 -9.323435 13.405393
LeftArm -10.759550 -29.852073 -30.783554
LeftForeArm -2.497201 -0.000000 63.602782
LeftHand -10.493198 0.000000 20.032785
LeftHandThumb1 -26.253704 0.000000 33.147579
RightShoulder -10.121310 -16.382068 -2.076376
RightArm 13.951643 -2.700351 66.258736
RightForeArm 178.223746 -0.000000 24.442986
RightHand 4.598672 -0.000000 1.379577
RightHandThumb1 -24.326973 -0.000000 -32.862282
LeftUpLeg -4.355138 4.462113 -4.496382
LeftLeg 6.974818 -0.000000 -0.000000
LeftFoot -17.471381 3.238102 -15.313415
LeftToeBase 14.784632 -0.000000 -0.000000
RightUpLeg -10.910200 -9.065237 -7.916037
RightLeg 22.565187 -0.000000 -0.000000
RightFoot -17.156815 -1.612546 9.450717
RightToeBase 1.896469 -0.000000 -0.000000
97
root 2.954761 36.731610 1.040085 5.503310 0.850722 2.270903
Spine 0.612664 8.778505 -6.846346
Head 5.683006 -2.348430 4.439904
LeftShoulder -7.792925 -9.334639 13.432563
LeftArm -10.757983 -29.895509 -30.891297
LeftForeArm -2.944093 -0.000000 64.084220
LeftHand -10.548194 -0.000000 20.126265
LeftHandThumb1 -26.253704 0.000000 33.147579
RightShoulder -10.014047 -16.415427 -1.986858
RightArm 14.232731 -3.630107 66.737681
RightForeArm 178.503226 -0.000000 24.222276
RightHand 4.641693 0.000000 1.186807
RightHandThumb1 -24.326973 -0.000000 -32.862282
LeftUpLeg -4.404696 4.366489 -4.614528
LeftLeg 6.990777 -0.000000 -0.000000
LeftFoot -17.552458 3.412942 -15.335711
LeftToeBase 14.794065 -0.000000 -0.000000
RightUpLeg -11.298269 -9.094882 -7.993669
RightLeg 23.219455 -0.000000 -0.000000
RightFoot -17.166687 -1.594531 9.413557
RightToeBase 1.703039 -0.000000 -0.000000
98
root 2.999397 36.723793 1.013153 5.482318 0.631463 2.327293
Spine 0.740212 8.962027 -6.975225
Head 5.701446 -2.311650 4.498067
LeftShoulder -7.750711 -9.328809 13.433598
LeftArm -10.727298 -29.981651 -31.030078
LeftForeArm -3.312604 -0.000000 64.558159
LeftHand -10.572396 0.000000 20.240435
LeftHandThumb1 -26.253704 0.000000 33.147579
RightShoulder -9.870615 -16.436319 -1.944893
RightArm 14.498767 -4.445926 67.244700
RightForeArm 178.625172 -0.000000 24.075875
RightHand 4.802452 -0.000000 1.016121
RightHandThumb1 -24.326973 -0.000000 -32.862282
LeftUpLeg -4.422437 4.391213 -4.762465
LeftLeg 6.998596 -0.000000 -0.000000
LeftFoot -17.619418 3.596252 -15.310167
LeftToeBase 14.788510 -0.000000 -0.000000
RightUpLeg -11.676176 -9.174817 -8.093776
RightLeg 23.849675 -0.000000 -0.000000
RightFoot -17.123663 -1.492045 9.370366
RightToeBase 1.239580 -0.000000 -0.000000
99
root 3.039064 36.717337 0.992751 5.428831 0.472421 2.355708
Spine 0.901619 9.094893 -7.059586
Head 5.705451 -2.279019 4.524869
LeftShoulder -7.695540 -9.302113 13.384701
LeftArm -10.713919 -30.025257 -31.079412
LeftForeArm -3.757954 -0.000000 65.032939
LeftHand -10.685912 0.000000 20.569837
LeftHandThumb1 -26.253704 0.000000 33.147579
RightShoulder -9.763920 -16.488023 -1.880741
RightArm 14.818333 -5.343212 67.647666
RightForeArm 178.717793 -0.000000 23.916249
RightHand 4.687251 -0.000000 0.870976
RightHandThumb1 -24.326973 -0.000000 -32.862282
LeftUpLeg -4.398950 4.383480 -4.863658
LeftLeg 7.002430 -0.000000 -0.000000
LeftFoot -17.680176 3.742453 -15.281866
LeftToeBase 14.804042 -0.000000 -0.000000
RightUpLeg -11.996695 -9.201087 -8.160789
RightLeg 24.485160 -0.000000 -0.000000
RightFoot -17.108117 -1.467134 9.391962
RightToeBase 1.140331 -0.000000 -0.000000
100
root 3.079325 36.711742 0.972790 5.349173 0.299040 2.382080
Spine 1.100135 9.215504 -7.132284
Head 5.708325 -2.237313 4.551757
LeftShoulder -7.692260 -9.296493 13.388626
LeftArm -10.665128 -30.117697 -31.252177
LeftForeArm -4.017584 -0.000000 65.485554
LeftHand -10.831466 -0.000000 20.845169
LeftHandThumb1 -26.253704 0.000000 33.147579
RightShoulder -9.635077 -16.492182 -1.849915
RightArm 15.108427 -6.140836 68.086551
RightForeArm 178.694354 -0.000000 23.813663
RightHand 4.833334 -0.000000 0.706695
RightHandThumb1 -24.326973 -0.000000 -32.862282
LeftUpLeg -4.335080 4.379565 -4.963100
LeftLeg 6.976882 -0.000000 -0.000000
LeftFoot -17.723826 3.912017 -15.254379
LeftToeBase 14.753058 -0.000000 -0.000000
RightUpLeg -12.309300 -9.231025 -8.217374
RightLeg 25.148529 -0.000000 -0.000000
RightFoot -17.052099 -1.516023 9.376787
RightToeBase 1.009428 -0.000000 -0.000000
101
root 3.117897 36.707410 0.953609 5.304549 0.168038 2.399001
Spine 1.245096 9.304278 -7.191987
Head 5.734085 -2.196257 4.563873
LeftShoulder -7.675127 -9.252143 13.367835
LeftArm -10.609303 -30.217561 -31.397601
LeftForeArm -4.390117 -0.000000 65.910045
LeftHand -10.879486 -0.000000 21.016116
LeftHandThumb1 -26.253704 0.000000 33.147579
RightShoulder -9.556746 -16.546215 -1.769772
RightArm 15.425939 -7.105626 68.362185
RightForeArm 178.971109 -0.000000 23.831952
RightHand 4.983116 -0.000000 0.669074
RightHandThumb1 -24.326973 -0.000000 -32.862282
LeftUpLeg -4.316250 4.362962 -5.048669
LeftLeg 6.975394 -0.000000 -0.000000
LeftFoot -17.762839 4.044172 -15.215085
LeftToeBase 14.775107 -0.000000 -0.000000
RightUpLeg -12.632408 -9.306510 -8.246269
RightLeg 25.785006 -0.000000 -0.000000
RightFoot -16.984400 -1.610262 9.342525
RightToeBase 0.732690 -0.000000 -0.000000
102
root 3.156504 36.704760 0.937318 5.249030 -0.008168 2.392014
Spine 1.378965 9.407170 -7.213214
Head 5.803575 -2.143739 4.554798
LeftShoulder -7.660222 -9.242299 13.322039
LeftArm -10.638367 -30.308674 -31.457928
LeftForeArm -5.092420 -0.000000 66.272907
LeftHand -10.537903 -0.000000 20.918639
LeftHandThumb1 -26.253704 0.000000 33.147579
RightShoulder -9.417852 -16.575575 -1.763680
RightArm 15.707566 -7.889122 68.699805
RightForeArm 178.778067 -0.000000 23.786796
RightHand 4.919237 -0.000000 0.375743
RightHandThumb1 -24.326973 -0.000000 -32.862282
LeftUpLeg -4.265242 4.391337 -5.111623
LeftLeg 6.937849 -0.000000 -0.000000
LeftFoot -17.790122 4.163090 -15.201040
LeftToeBase 14.733510 -0.000000 -0.000000
RightUpLeg -12.957832 -9.345743 -8.266051
RightLeg 26.451094 -0.000000 -0.000000
RightFoot -16.857444 -1.610973 9.412728
RightToeBase 0.331950 -0.000000 -0.000000
103
root 3.197162 36.702483 0.927034 5.133314 -0.223063 2.381188
Spine 1.578169 9.572050 -7.207268
Head 5.866669 -2.096053 4.511165
LeftShoulder -7.638893 -9.236078 13.243411
LeftArm -10.644772 -30.328627 -31.517951
LeftForeArm -5.654495 -0.000000 66.693625
LeftHand -10.593882 -0.000000 21.060441
LeftHandThumb1 -26.253704 0.000000 33.147579
RightShoulder -9.320992 -16.618252 -1.759784
RightArm 16.012056 -8.803250 68.904898
RightForeArm 178.563359 -0.000000 23.861460
RightHand 5.004790 -0.000000 -0.013977
RightHandThumb1 -24.326973 -0.000000 -32.862282
LeftUpLeg -4.127782 4.471865 -5.171475
LeftLeg 6.861219 -0.000000 -0.000000
LeftFoot -17.818263 4.276836 -15.199715
LeftToeBase 14.786302 -0.000000 -0.000000
RightUpLeg -13.232737 -9.321889 -8.294970
RightLeg 27.143439 -0.000000 -0.000000
RightFoot -16.704059 -1.658588 9.510515
RightToeBase -0.135333 -0.000000 0.000000
104
root 3.237993 36.700878 0.916370 5.038502 -0.404940 2.361521
Spine 1.747411 9.673317 -7.179249
Head 5.954781 -2.022918 4.436764
LeftShoulder -7.654577 -9.173640 13.198400
LeftArm -10.616503 -30.460042 -31.685125
LeftForeArm -6.119832 0.000000 67.101626
LeftHand -10.610085 -0.000000 21.064870
LeftHandThumb1 -26.253704 0.000000 33.147579
RightShoulder -9.203426 -16.648096 -1.797456
RightArm 16.283604 -9.597854 69.154556
RightForeArm 178.063047 -0.000000 23.982190
RightHand 4.972077 -0.000000 -0.333748
RightHandThumb1 -24.326973 -0.000000 -32.862282
LeftUpLeg -4.022273 4.547103 -5.224025
LeftLeg 6.808851 -0.000000 -0.000000
LeftFoot -17.822995 4.403509 -15.116538
LeftToeBase 14.727763 -0.000000 -0.000000
RightUpLeg -13.544935 -9.336892 -8.289109
RightLeg 27.886465 -0.000000 -0.000000
RightFoot -16.550628 -1.798919 9.579832
RightToeBase -0.588593 -0.000000 0.000000
